<svg xmlns="http://www.w3.org/2000/svg" viewBox="0 0 11941.12 8665.53"><defs><style>.cls-1{fill:#65006d;}</style></defs><g id="Layer_2" data-name="Layer 2"><g id="Layer_1-2" data-name="Layer 1"><path class="cls-1" d="M13797.09-1382.73q-349.57,942.22-636.89,1906.85C12690.32,88.4,12365.81-501.8,12268.27-1166c458.87-108.93,1218.35-279.73,1580.81-357.16C13831.62-1476.47,13814.16-1429.79,13797.09-1382.73Z" transform="translate(-8672 4473.76)"/><path class="cls-1" d="M14038.1-2013.15c-449.39,90.71-1216.45,259.6-1801,395.86,14.05-1580.05,1299.2-2856.47,2882.67-2856.47,650.16,0,1249.85,215.2,1732.26,578.43q-345,741.82-640.68,1504.15-786.81,115.56-1568.67,261.12c-18.22,3.42-36.82,6.84-55.42,10.25q93.38-227.73,191.3-453.56,230.56-536.3,482-1064.63c76.67-161.31-298.7-479.75-390.55-286.56Q14421.44-2982.9,14038.1-2013.15Z" transform="translate(-8672 4473.76)"/><path class="cls-1" d="M16746.17-2466.33q146.31-361,304-717.35,84.26-190.72,171.93-379.93c260,276.69,466.09,605,600.83,967.47h-2.66q-510.68,54.66-1020.6,122.59C16781.85-2471.27,16764-2469,16746.17-2466.33Z" transform="translate(-8672 4473.76)"/><path class="cls-1" d="M18003.23-1590.72c0,1592.58-1290.84,2883.43-2883.42,2883.43-568.18,0-1098.41-164.35-1544.76-448.63-6.45-12.15-14.42-24.29-22.77-36.44q188.44-631.93,403.46-1255.16,82.55-240.26,169.27-478.61c22-60,43.65-119.56,66-179.15q98.49-265.87,202.29-530.6c9.49-2.28,19-3.8,28.85-5.7q805-160.55,1615.35-288.45c-2.27,6.45-4.55,12.14-6.83,18.59q-333.61,912.63-597,1851.06c-34.16,121.45,140,304.39,268.34,341.59,57.69,16.7,105.89,4.18,122.59-55.41q148-527.19,318.44-1046.8c49.34-151.82,100.2-302.49,153-453.18q60.34-173.07,123-345,71.73-195.85,146.13-390.56c8.35-1.14,16.7-2.28,24.67-3.41q674.64-96.79,1352.33-171.56A2914.51,2914.51,0,0,1,18003.23-1590.72Z" transform="translate(-8672 4473.76)"/><path class="cls-1" d="M13073.75,1624.3q-342.8,62.55-682.93,137.62-161.19,533.82-272.36,1081.71c-18.87,93.3-211.77-36.89-194.57-121.71q92.52-456.49,220.33-904.06-385.17,90.12-766.42,195.89-181,584.72-312.63,1183.44c21.16,25.93,33.83,54.71,28.23,79.43-16.95,74.83-47.12,138.92-92.16,200.75-54.56,74.92-199.53-71.75-186.32-137.74q127-633.83,309.71-1253.81Q10836.17,2170,10550.26,2263c-83.13,27.07-237.26-145.93-148.82-174.72q395.23-128.68,795.5-240.37,147.48-471,326.62-931.76c36.74-94.43,225.21,43,194.58,121.74q-142.77,366.87-265.48,740.65,377-99.79,757.73-184.57,161.1-525.87,370.11-1036c38.62-94.21,226.48,43.92,194.58,121.71q-174,424.2-314.7,860.19,250.88-52.5,503.08-98.59C13044.93,1426.41,13188.52,1603.4,13073.75,1624.3Z" transform="translate(-8672 4473.76)"/><path class="cls-1" d="M14383.55,2232.9c-314.56,219.75-591.15,501.45-844.76,789.85A6460.24,6460.24,0,0,1,12944,4171.12c-45.07,69.09-167.39-53.91-182.41-95.94-79.58-222.42,22.93-437.27,143.28-623.55,106-164.17,229-317.86,355.42-466.61q46.27-54.43,93.69-108.48,103.8-264.21,183.66-537.34-109.34,101.25-227.06,193.33c-170.36,132.64-354.41,279.41-579.24,198.34-42.6-15.38-107.15-72.08-106.39-123.07,2.86-190.66,56.9-365.59,165.53-522.72,49.7-71.91,230.92,77.24,178.06,153.71-69,99.81-114.86,210.25-134.89,327.54,65.16-19.41,128.41-63.24,177.63-97.36,82.46-57.11,161.36-120.09,237.83-185,148.23-125.83,284.88-263.85,411.37-411.45,60-70,201.11,69.07,186.31,137.73q-51.44,239.17-121.36,473.13c159.5-154.55,372-269.93,547.42-384.15C14342.32,2054,14467.86,2174,14383.55,2232.9Z" transform="translate(-8672 4473.76)"/><path class="cls-1" d="M15378.87,2134.31c-66.38,220.33-274.88,518.81-526.64,534.58-43.42,2.7-102.89-46.09-133.15-94-185.69,337.93-319.11,710.51-416,1078.62-24.84,94.45-216.23-38.46-194.6-121.71Q14329.4,2682,14550.24,1832.2c24.5-94.3,216.25,38.36,194.57,121.71q-28.84,111.12-57.73,222.18c71.94-108.37,152.24-210.55,244.26-301.11,106.8-105.12,228.41-190.19,366-77.9C15399.87,1880.73,15415,2014.39,15378.87,2134.31Zm-189.51-177.13a247,247,0,0,0-23.16,18.93c-19.71,16.41-38.52,34.61-56.81,52.6-80.21,79-150.36,167.86-214.37,260.28-43.28,62.49-84.05,127-122.94,192.85,188.33-35.53,348.49-284.8,404.71-446.55C15185.1,2011.34,15186.88,1983.67,15189.36,1957.18Z" transform="translate(-8672 4473.76)"/><path class="cls-1" d="M16810.64,2041.09c-269.26,205.35-550.42,439.14-863.19,577-114.94,50.64-235.7,67.61-327.42-37.69-142.2-163.32,6.86-429.42,114.74-566.83,97.64-124.4,276.38-268.62,428-131.82,218,196.69-244.79,415.79-369,486.88-.32.18-.67.28-1,.46a598.05,598.05,0,0,0-22.15,82.44c210.45-43.44,709-335.52,908.52-514.59C16749.69,1873.55,16876.35,1991,16810.64,2041.09Z" transform="translate(-8672 4473.76)"/><path class="cls-1" d="M19273.69,721.82c-205.18,535.63-430.42,1074-578.32,1629.34-50,187.83-87.13,368.55-13.88,526.75,23,49.63-17.2,75.31-60.86,70.51-56.35-6.22-103.77-60.85-125.92-108.7-29.14-62.9-47.83-130.82-52.68-200.11-14.57-206.86,57.88-421.19,119-615.26q56.65-180.06,119.13-358.32a5468.8,5468.8,0,0,1-1128.64,1082.61c-41.27,29.55-115.4-32.92-139.56-59.73-110.94-123-57.22-257.76-3.26-393.52,68.15-171.44,144.35-339.59,220.69-507.5,146.61-322.5,296.27-646.24,390.24-988.89,22.49-82,41.71-165,56.87-248.64,7.39-40.74,10.8-82.1,16.36-122.93a409.41,409.41,0,0,0-47.53,23.92c-142.77,78.72-274.36,181.26-394.3,291.18a2395.69,2395.69,0,0,0-336.07,381.22c-82.36,116.32-274.48,355.15-185.11,500.26,23.8,38.62,24.92,86.89-26.94,95.81-52.65,9-112.36-46.88-137.24-87.29-92.68-150.46-44.21-302.43,35.63-447.17,84.59-153.4,188.06-297,304.8-427.51a2403.22,2403.22,0,0,1,336.13-310.46c102.11-77.7,225-184,353.23-210.39,125.2-25.81,251.15,62.05,287.34,182.07,39.39,130.41-18.34,303.93-50.11,431.18-80,320.48-211.84,624.74-347.57,924.81-68.5,151.45-138.37,302.28-204.1,455q-41.47,96.39-80.08,194c619.28-489.15,1128.62-1116.28,1478.22-1823.94,13.08-34.23,46.2-38,81.65-25.2.87.3,1.76.64,2.63,1,.44.15.91.29,1.36.46C19228.72,599.12,19297.2,674.25,19273.69,721.82Z" transform="translate(-8672 4473.76)"/><path class="cls-1" d="M20179,1782c-66.38,220.33-274.89,518.81-526.64,534.58-43.42,2.7-102.89-46.09-133.15-94-185.69,337.93-319.11,710.52-416,1078.62-24.84,94.46-216.23-38.46-194.6-121.71q220.94-849.73,441.78-1699.59c24.5-94.3,216.25,38.36,194.57,121.71q-28.85,111.12-57.73,222.18c71.94-108.37,152.24-210.55,244.26-301.11,106.8-105.12,228.41-190.19,366-77.9C20200,1528.43,20215.08,1662.09,20179,1782Zm-189.51-177.13a247.06,247.06,0,0,0-23.16,18.94c-19.71,16.4-38.52,34.6-56.81,52.59-80.21,79-150.36,167.86-214.37,260.28-43.28,62.49-84,127-122.94,192.85,188.33-35.53,348.49-284.8,404.71-446.55C19985.21,1659,19987,1631.37,19989.47,1604.88Z" transform="translate(-8672 4473.76)"/><path class="cls-1" d="M20613,1188.23c-24.84,339.59-64.24,1052.08-59.31,1261.18,3.82,52.08-143.18,47.15-162.31-35.21-47.29-216.48-81.54-1075.41-53.63-1266,9.38-50.49,49.7-71.74,99.37-72.74C20518.25,1074.75,20616.58,1130.35,20613,1188.23Zm-32.25,1416.28c3.26,44.29-35.92,81.23-88,85-49.52,3.64-96.26-27-99.52-71.29-3-41.62,38.73-78.75,88.25-82.38C20533.6,2532.06,20577.74,2562.88,20580.78,2604.51Z" transform="translate(-8672 4473.76)"/></g></g></svg>